0
SECTION
2
HEADER
9
$INSUNITS
70
4
9
$ACADVER
1
AC1014
9
$HANDSEED
5
FFFF
0
ENDSEC
0
SECTION
2
TABLES
0
TABLE
2
VPORT
5
8
100
AcDbSymbolTable
0
ENDTAB
0
TABLE
2
LTYPE
5
5
100
AcDbSymbolTable
0
LTYPE
5
14
100
AcDbSymbolTableRecord
100
AcDbLinetypeTableRecord
2
BYBLOCK
70
0
0
LTYPE
5
15
100
AcDbSymbolTableRecord
100
AcDbLinetypeTableRecord
2
BYLAYER
70
0
0
LTYPE
5
16
100
AcDbSymbolTableRecord
100
AcDbLinetypeTableRecord
2
DASHED
70
0
3
Dashed __ __ __ __ __ __ __ __ __ __ __ __ __ _
72
65
73
2
40
0.75
49
0.5
74
0
49
-0.25
74
0
0
ENDTAB
0
TABLE
2
LAYER
5
2
100
AcDbSymbolTable
70
2
0
LAYER
5
50
100
AcDbSymbolTableRecord
100
AcDbLayerTableRecord
2
0
70
0
62
7
6
CONTINUOUS
0
ENDTAB
0
TABLE
2
STYLE
5
3
100
AcDbSymbolTable
70
1
0
STYLE
5
11
100
AcDbSymbolTableRecord
100
AcDbTextStyleTableRecord
2
STANDARD
70
0
0
ENDTAB
0
TABLE
2
VIEW
5
6
100
AcDbSymbolTable
70
0
0
ENDTAB
0
TABLE
2
UCS
5
7
100
AcDbSymbolTable
70
0
0
ENDTAB
0
TABLE
2
APPID
5
9
100
AcDbSymbolTable
70
2
0
APPID
5
12
100
AcDbSymbolTableRecord
100
AcDbRegAppTableRecord
2
ACAD
70
0
0
ENDTAB
0
TABLE
2
DIMSTYLE
5
A
100
AcDbSymbolTable
70
1
0
ENDTAB
0
TABLE
2
BLOCK_RECORD
5
1
100
AcDbSymbolTable
70
1
0
BLOCK_RECORD
5
1F
100
AcDbSymbolTableRecord
100
AcDbBlockTableRecord
2
*MODEL_SPACE
0
BLOCK_RECORD
5
1B
100
AcDbSymbolTableRecord
100
AcDbBlockTableRecord
2
*PAPER_SPACE
0
ENDTAB
0
ENDSEC
0
SECTION
2
BLOCKS
0
BLOCK
5
20
100
AcDbEntity
100
AcDbBlockBegin
2
*MODEL_SPACE
0
ENDBLK
5
21
100
AcDbEntity
100
AcDbBlockEnd
0
BLOCK
5
1C
100
AcDbEntity
100
AcDbBlockBegin
2
*PAPER_SPACE
0
ENDBLK
5
1D
100
AcDbEntity
100
AcDbBlockEnd
0
ENDSEC
0
SECTION
2
ENTITIES
0
LWPOLYLINE
5
100
100
AcDbEntity
8
0
100
AcDbPolyline
90
48
70
1
43
0.0
10
-94.449153365374784
20
98.812123972208198
10
-94.45731305244864
20
208.21039097220822
42
0.41044872246870512
10
-98.399967745271084
20
212.20710700350389
10
-142.80570183610354
20
212.20544743959596
42
0.31219870905974945
10
-143.74144938663312
20
211.55801881942682
42
-0.69168545383898417
10
-149.82352169231405
20
211.55661390023789
42
0.31210053502064999
10
-150.75921041646711
20
212.20361023604795
10
-302.48012699517108
20
212.19347768583248
42
0.31210053502061685
10
-303.41572929279636
20
211.54635637746966
42
-0.69156407480813264
10
-309.49742511357579
20
211.54595021667333
42
0.31210053502064267
10
-310.43311383772891
20
212.19294655248342
10
-398.99924663050939
20
212.18703173989098
42
0.31210053502059176
10
-399.93484892813461
20
211.53991043152817
42
-0.69156407480812188
10
-406.01654474891393
20
211.53950427073187
42
0.31210053502060103
10
-406.95223347306705
20
212.18650060654193
10
-480.14997443803043
20
212.18161215870816
42
0.31210053502060087
10
-481.08557673565565
20
211.53449085034532
42
-0.69156407465497038
10
-487.16727255595964
20
211.53408468828889
42
0.31210053549775468
10
-488.10296128212008
20
212.18108102371104
10
-517.41068868222328
20
212.17912366936173
42
0.4271916743933567
10
-521.50084454662306
20
208.09113183971064
10
-521.49268485954917
20
98.692864839710595
42
0.41422592169677391
10
-517.5189632018255
20
94.692856668789304
10
-507.15590343383144
20
94.693629540723947
42
0.3127194842988007
10
-506.21951260883611
20
95.342869582756322
42
-0.69323258849461256
10
-500.13265756559571
20
95.343323578546432
42
0.3127194826427685
10
-499.19616990827251
20
94.694223227526948
10
-425.99505489685362
20
94.699683078110851
42
0.31210053502062374
10
-425.05945764864828
20
95.346811686819535
42
-0.69156407480812643
10
-418.97776183122301
20
95.347265302183942
42
0.31210053502065088
10
-418.04206805868228
20
94.70027626743348
10
-361.70980531839859
20
94.70447792115921
42
0.31210053502062374
10
-360.77420807019325
20
95.351606529867894
42
-0.6915640748081322
10
-354.69251225276798
20
95.352060145232286
42
0.31210053502062807
10
-353.75681848022725
20
94.705071110481853
10
-280.74830532604392
20
94.710516595473592
42
0.3121005350205861
10
-279.81270807783852
20
95.35764520418229
42
-0.69156407480812421
10
-273.73101226041337
20
95.358098819546697
42
0.31210053502064172
10
-272.79531848787263
20
94.711109784796264
10
-199.78479606353744
20
94.716555419653417
42
0.31210053502058155
10
-198.84919881533199
20
95.363684028362101
42
-0.69156407480812421
10
-192.76750299790689
20
95.364137643726508
42
0.31210053502058177
10
-191.8318092253661
20
94.717148608976061
10
-116.66403234831157
20
94.722755146942163
42
0.31210053502061702
10
-115.72843510010613
20
95.369883755650861
42
-0.69156407481406224
10
-109.64673928266254
20
95.370337370966368
42
0.31210053500211649
10
-108.71104551019961
20
94.723348336200928
10
-98.539315068635688
20
94.724107014073567
42
0.4271920227477054
0
CIRCLE
5
101
100
AcDbEntity
8
0
100
AcDbCircle
10
-103.18750000000001
20
103.45937499999999
30
0
40
1.9939
210
0
220
-0
230
1
0
CIRCLE
5
102
100
AcDbEntity
8
0
100
AcDbCircle
10
-98.107500000000002
20
103.45937499999999
30
0
40
0.85089999999999999
210
0
220
-0
230
1
0
CIRCLE
5
103
100
AcDbEntity
8
0
100
AcDbCircle
10
-108.26750000000001
20
103.45937499999999
30
0
40
0.85089999999999999
210
0
220
-0
230
1
0
CIRCLE
5
104
100
AcDbEntity
8
0
100
AcDbCircle
10
-512.76250000000005
20
203.47187500000004
30
0
40
1.9939
210
0
220
-0
230
1
0
CIRCLE
5
105
100
AcDbEntity
8
0
100
AcDbCircle
10
-507.6825
20
203.47187500000004
30
0
40
0.85089999999999999
210
0
220
-0
230
1
0
CIRCLE
5
106
100
AcDbEntity
8
0
100
AcDbCircle
10
-517.84249999999997
20
203.47187500000004
30
0
40
0.85089999999999999
210
0
220
-0
230
1
0
ENDSEC
0
SECTION
2
OBJECTS
0
DICTIONARY
5
C
100
AcDbDictionary
3
ACAD_GROUP
350
D
3
ACAD_MLINESTYLE
350
17
0
DICTIONARY
5
D
100
AcDbDictionary
0
DICTIONARY
5
1A
330
C
100
AcDbDictionary
0
DICTIONARY
5
17
100
AcDbDictionary
0
ENDSEC
0
EOF
