0
SECTION
2
HEADER
9
$INSUNITS
70
4
9
$ACADVER
1
AC1014
9
$HANDSEED
5
FFFF
0
ENDSEC
0
SECTION
2
TABLES
0
TABLE
2
VPORT
5
8
100
AcDbSymbolTable
0
ENDTAB
0
TABLE
2
LTYPE
5
5
100
AcDbSymbolTable
0
LTYPE
5
14
100
AcDbSymbolTableRecord
100
AcDbLinetypeTableRecord
2
BYBLOCK
70
0
0
LTYPE
5
15
100
AcDbSymbolTableRecord
100
AcDbLinetypeTableRecord
2
BYLAYER
70
0
0
LTYPE
5
16
100
AcDbSymbolTableRecord
100
AcDbLinetypeTableRecord
2
DASHED
70
0
3
Dashed __ __ __ __ __ __ __ __ __ __ __ __ __ _
72
65
73
2
40
0.75
49
0.5
74
0
49
-0.25
74
0
0
ENDTAB
0
TABLE
2
LAYER
5
2
100
AcDbSymbolTable
70
2
0
LAYER
5
50
100
AcDbSymbolTableRecord
100
AcDbLayerTableRecord
2
0
70
0
62
7
6
CONTINUOUS
0
ENDTAB
0
TABLE
2
STYLE
5
3
100
AcDbSymbolTable
70
1
0
STYLE
5
11
100
AcDbSymbolTableRecord
100
AcDbTextStyleTableRecord
2
STANDARD
70
0
0
ENDTAB
0
TABLE
2
VIEW
5
6
100
AcDbSymbolTable
70
0
0
ENDTAB
0
TABLE
2
UCS
5
7
100
AcDbSymbolTable
70
0
0
ENDTAB
0
TABLE
2
APPID
5
9
100
AcDbSymbolTable
70
2
0
APPID
5
12
100
AcDbSymbolTableRecord
100
AcDbRegAppTableRecord
2
ACAD
70
0
0
ENDTAB
0
TABLE
2
DIMSTYLE
5
A
100
AcDbSymbolTable
70
1
0
ENDTAB
0
TABLE
2
BLOCK_RECORD
5
1
100
AcDbSymbolTable
70
1
0
BLOCK_RECORD
5
1F
100
AcDbSymbolTableRecord
100
AcDbBlockTableRecord
2
*MODEL_SPACE
0
BLOCK_RECORD
5
1B
100
AcDbSymbolTableRecord
100
AcDbBlockTableRecord
2
*PAPER_SPACE
0
ENDTAB
0
ENDSEC
0
SECTION
2
BLOCKS
0
BLOCK
5
20
100
AcDbEntity
100
AcDbBlockBegin
2
*MODEL_SPACE
0
ENDBLK
5
21
100
AcDbEntity
100
AcDbBlockEnd
0
BLOCK
5
1C
100
AcDbEntity
100
AcDbBlockBegin
2
*PAPER_SPACE
0
ENDBLK
5
1D
100
AcDbEntity
100
AcDbBlockEnd
0
ENDSEC
0
SECTION
2
ENTITIES
0
LWPOLYLINE
5
100
100
AcDbEntity
8
0
100
AcDbPolyline
90
40
70
1
43
0.0
10
30.268338072769723
20
133.8631084574499
42
0.84988185072456646
10
36.612008072772255
20
133.86321445745028
10
113.35867507277051
20
133.86392645745005
42
0.85616197949214046
10
119.76328907277214
20
133.86459545745029
10
136.43269207277206
20
133.86292645745033
10
179.33368007277187
20
133.8639264574503
10
194.32227507276815
20
133.86392645744974
42
0.8561869881254589
10
200.72691807277187
20
133.86594045745034
10
222.15769207277177
20
133.86292645745033
10
275.28368407277264
20
133.8639264574505
42
0.8560714696132391
10
281.6881960727718
20
133.86392645745036
10
309.83097007277144
20
133.86361045745036
10
326.9326920727716
20
133.86292645745038
10
339.55938407276938
20
133.86487945745006
42
0.85704288492183234
10
345.98353407277153
20
133.86835445745038
10
420.719271072764
20
133.86959645744923
42
0.85423925534892609
10
427.14016307277126
20
133.88290845745038
10
438.25266407277121
20
133.89417545745513
42
-0.41425367678155128
10
442.25266407276456
20
129.89417645745038
10
442.2333870728084
20
20.495909457451489
42
-0.42717528087554157
10
438.14439807277131
20
16.407908457450677
10
408.09016407278114
20
16.407908457452205
42
0.85674271466731167
10
401.66816607277121
20
16.40790845745066
10
326.9362740727791
20
16.398131457451868
42
0.85147462375924354
10
320.52046807277145
20
16.397291457450667
10
230.47778607277542
20
16.385512457451217
42
0.36901056614987654
10
227.28190907277201
20
19.11823245745417
42
0.38387563588986867
10
223.94078407277186
20
16.38465445745064
10
217.46100507276174
20
16.383807457452068
42
-0.86987288182522626
10
211.34945807277199
20
16.370984457450675
10
198.40889907276983
20
16.368895457450954
42
-0.86773210783902377
10
192.29944207277191
20
16.370983457450645
10
103.15884407277009
20
16.368852457450913
42
-0.86773210783902377
10
97.04938707277222
20
16.370940457450605
10
70.746413072781067
20
16.379926457451948
42
0.85674284807332768
10
64.324416072772337
20
16.379926457450598
10
19.152674072773049
20
16.379926457523617
42
-0.41140707300722873
10
15.183914072772424
20
20.376658457450585
10
15.203191072782193
20
129.77492545745054
42
-0.42717528087961226
10
19.292180072772354
20
133.8629264574503
0
ENDSEC
0
SECTION
2
OBJECTS
0
DICTIONARY
5
C
100
AcDbDictionary
3
ACAD_GROUP
350
D
3
ACAD_MLINESTYLE
350
17
0
DICTIONARY
5
D
100
AcDbDictionary
0
DICTIONARY
5
1A
330
C
100
AcDbDictionary
0
DICTIONARY
5
17
100
AcDbDictionary
0
ENDSEC
0
EOF
